<?xml version="1.0" standalone="no"?>
<!DOCTYPE svg PUBLIC "-//W3C//DTD SVG 20010904//EN"
 "http://www.w3.org/TR/2001/REC-SVG-20010904/DTD/svg10.dtd">
<svg version="1.0" xmlns="http://www.w3.org/2000/svg"
 width="512.000000pt" height="512.000000pt" viewBox="0 0 512.000000 512.000000"
 preserveAspectRatio="xMidYMid meet">
<metadata>
Created by potrace 1.11, written by Peter Selinger 2001-2013
</metadata>
<g transform="translate(0.000000,512.000000) scale(0.100000,-0.100000)"
fill="#000000" stroke="none">
<path d="M765 5104 c-6 -9 -22 -17 -36 -17 -15 -1 -26 -8 -25 -16 1 -7 -8 -15
-19 -17 -11 -2 -21 -8 -23 -13 -6 -17 -22 -13 -23 7 0 12 -2 13 -6 3 -11 -27
-37 -51 -44 -40 -5 8 -8 8 -13 0 -4 -6 -2 -11 3 -11 18 0 12 -19 -9 -30 -16
-9 -19 -8 -14 7 3 13 2 13 -6 -2 -6 -11 -24 -28 -40 -37 -17 -9 -28 -23 -27
-30 2 -7 2 -9 -1 -5 -6 12 -32 -13 -33 -32 0 -11 -2 -12 -6 -3 -6 16 -33 -3
-33 -23 0 -8 -8 -11 -19 -8 -14 3 -20 -2 -25 -22 -4 -14 -12 -25 -19 -23 -15
3 -57 -32 -57 -49 0 -7 -7 -13 -15 -13 -8 0 -19 -9 -25 -20 -6 -11 -18 -20
-28 -20 -14 0 -14 -2 -3 -9 11 -7 9 -10 -10 -13 -13 -1 -29 -13 -35 -26 -6
-13 -13 -22 -15 -20 -3 2 -23 -15 -47 -36 -23 -21 -58 -50 -77 -63 l-35 -24 2
-1572 3 -1572 45 -21 c49 -24 180 -50 204 -41 9 4 16 2 16 -4 0 -6 11 -35 25
-65 14 -30 25 -59 25 -64 0 -5 14 -33 31 -62 17 -29 35 -62 40 -73 5 -11 27
-45 49 -75 22 -30 55 -75 72 -100 40 -56 66 -86 146 -167 46 -48 62 -71 62
-93 0 -15 15 -51 34 -79 l35 -51 -132 -1 c-280 -3 -366 1 -597 27 -24 3 -48 8
-52 10 -4 3 -8 -108 -8 -245 l0 -251 2560 0 2560 0 0 36 c0 36 0 36 -35 30
-30 -6 -34 -5 -28 10 5 15 2 16 -25 11 -24 -5 -32 -3 -32 7 0 9 -17 17 -50 21
-27 4 -50 11 -50 16 0 5 -13 9 -30 9 -16 0 -30 5 -30 11 0 7 -10 9 -25 5 -14
-4 -25 -3 -25 2 0 4 -30 14 -67 21 -74 14 -103 20 -238 49 -49 11 -123 26
-163 33 -40 7 -69 16 -65 20 4 4 33 20 63 35 133 68 220 153 220 215 0 12 21
45 48 74 183 200 283 336 365 496 l53 104 57 3 57 3 0 1733 0 1734 -132 125
c-73 69 -188 168 -255 221 l-123 96 -1917 0 c-1743 0 -1919 -1 -1928 -16z
m430 -1266 c11 -2 23 -7 27 -13 11 -15 9 -37 -2 -30 -7 4 -9 -5 -5 -24 4 -25
2 -31 -12 -32 -16 0 -15 -2 2 -9 11 -5 15 -9 8 -9 -18 -1 -33 -36 -40 -89 -3
-26 -9 -51 -13 -57 -4 -5 -10 -21 -12 -35 -3 -14 -9 -34 -13 -45 -6 -17 -5
-18 5 -5 10 13 11 12 5 -5 -4 -11 -9 -33 -11 -50 -2 -16 -6 -41 -9 -54 -11
-45 -15 -189 -6 -213 4 -12 5 -32 1 -43 -4 -11 -4 -24 0 -30 4 -5 13 -46 19
-90 6 -43 17 -82 23 -86 9 -6 8 -12 -3 -25 -12 -16 -12 -17 4 -11 11 4 16 3
12 -4 -4 -5 0 -20 7 -32 8 -12 20 -41 28 -64 7 -24 17 -43 22 -43 4 0 8 -9 8
-19 0 -11 5 -23 10 -26 6 -3 10 -15 10 -26 0 -21 15 -26 26 -8 4 8 10 5 17 -7
18 -31 19 -57 3 -51 -8 3 -24 -4 -37 -16 -20 -19 -22 -19 -16 -3 7 17 3 18
-28 13 -31 -5 -34 -4 -20 9 20 21 20 21 -17 19 -18 -2 -38 2 -45 7 -7 6 -19 4
-32 -4 -23 -14 -26 -24 -11 -33 6 -3 10 1 10 9 0 19 20 22 21 4 0 -9 2 -9 6 1
5 11 7 11 14 0 8 -12 11 -11 20 1 9 13 10 13 6 0 -2 -8 -15 -16 -28 -17 -13
-1 -29 -2 -34 -3 -25 -5 -45 1 -45 15 0 8 -6 15 -12 16 -7 0 -25 2 -39 3 -18
1 -25 -3 -22 -11 3 -7 10 -13 17 -13 6 0 4 -5 -4 -10 -10 -6 -20 -5 -30 4 -8
7 -35 24 -60 38 -25 15 -71 51 -102 82 -31 31 -66 56 -76 56 -18 0 -52 -37
-116 -124 -39 -53 -83 -152 -102 -229 -8 -34 -19 -78 -24 -97 -26 -100 -1
-231 63 -328 32 -49 122 -152 133 -152 3 0 17 -11 31 -25 25 -22 25 -24 5 -18
-13 3 -22 1 -22 -6 0 -7 13 -9 38 -5 l37 6 -24 -25 c-13 -14 -21 -32 -18 -39
4 -9 6 -7 6 5 1 9 6 17 11 17 9 0 14 -21 11 -42 0 -4 7 -4 16 -1 10 4 12 8 6
10 -7 3 -9 11 -6 19 3 8 0 14 -7 14 -6 0 -8 5 -5 10 3 5 11 10 16 10 6 0 7 -5
3 -12 -5 -8 -1 -9 12 -4 15 6 17 5 6 -5 -19 -20 -14 -31 11 -24 l22 7 -22 -17
c-13 -9 -23 -22 -22 -28 0 -9 2 -8 6 1 2 6 9 9 15 6 6 -4 15 0 20 7 7 10 8 8
5 -9 -4 -17 -1 -22 14 -22 10 0 19 -4 19 -10 0 -5 5 -10 11 -10 6 0 8 7 5 16
-4 10 -1 14 6 12 7 -3 15 -15 16 -28 3 -18 6 -20 14 -9 7 11 11 11 15 1 2 -6
9 -10 14 -6 5 3 9 1 9 -5 0 -5 -4 -13 -10 -16 -6 -3 -9 -14 -9 -23 1 -15 2
-15 6 1 9 33 29 14 25 -24 -1 -3 6 -6 14 -6 10 0 11 4 4 11 -5 5 -10 17 -9 25
0 11 2 12 6 4 2 -7 13 -13 24 -13 10 0 19 -5 19 -11 0 -5 -4 -7 -10 -4 -16 10
-11 -1 7 -16 11 -10 14 -10 9 -1 -11 19 34 9 49 -12 7 -9 19 -14 27 -11 8 3
15 0 16 -7 1 -7 3 -28 5 -47 1 -20 9 -36 17 -38 13 -4 13 -3 0 6 -11 8 -11 11
-2 11 15 0 35 -48 28 -67 -3 -8 1 -16 9 -19 8 -4 15 -11 15 -16 0 -6 -8 -7
-17 -3 -14 5 -15 4 -6 -6 9 -9 16 -9 25 -1 14 11 74 9 86 -3 4 -5 1 -5 -5 -1
-7 4 -13 2 -13 -4 0 -7 -6 -10 -13 -7 -9 3 -14 -4 -14 -22 0 -24 4 -27 26 -25
14 1 31 -2 38 -8 10 -8 12 -7 7 6 -6 15 -18 20 -37 17 -5 -1 -6 3 -2 9 8 13
35 13 35 -1 0 -5 3 -8 8 -5 11 7 9 -108 -3 -117 -7 -5 -7 -10 0 -15 6 -4 10
-49 10 -99 0 -58 5 -99 12 -110 11 -14 12 -11 10 22 -2 35 0 38 28 40 17 2 24
1 16 -2 -11 -5 -11 -7 0 -14 12 -8 11 -11 -1 -19 -10 -6 -11 -10 -3 -10 7 0
10 -6 7 -14 -4 -9 2 -13 18 -11 18 2 24 -2 24 -19 0 -11 -3 -23 -7 -26 -5 -3
1 -11 12 -18 17 -11 20 -10 17 4 -2 11 4 18 19 19 12 1 20 -2 17 -7 -3 -4 -1
-8 5 -8 5 0 9 -8 8 -19 -1 -19 -24 -21 -88 -7 -18 4 -31 0 -44 -14 -10 -11
-13 -20 -8 -20 6 0 13 7 17 15 5 14 38 16 52 3 3 -4 1 -15 -4 -25 -10 -17 -11
-17 -17 0 -4 9 -12 17 -17 17 -6 0 -8 -6 -5 -12 3 -8 -4 -13 -18 -13 -13 0
-21 3 -19 7 2 3 -2 8 -8 11 -9 3 -7 11 7 27 l20 24 -27 -20 c-15 -10 -26 -24
-23 -31 2 -7 -1 -15 -8 -19 -7 -4 -9 -4 -5 1 4 4 3 17 -3 28 -6 10 -7 17 -2
14 4 -3 16 5 25 18 16 22 16 24 -2 40 -11 10 -20 13 -20 7 0 -6 4 -13 10 -17
11 -7 2 -35 -12 -35 -5 0 -8 7 -6 16 2 10 -2 19 -9 21 -7 3 -10 -5 -9 -22 4
-30 -4 -37 -24 -24 -12 7 -12 9 -1 9 11 0 11 3 1 15 -11 13 -15 13 -23 3 -6
-9 -7 -8 -3 5 3 10 6 33 7 50 0 18 3 25 6 17 3 -8 11 -18 17 -22 8 -5 7 -8 -1
-8 -7 0 -13 -7 -13 -15 0 -8 5 -15 10 -15 17 0 16 62 -1 68 -5 2 -9 11 -9 20
0 12 10 6 30 -18 24 -28 28 -31 23 -12 -3 12 -9 22 -14 22 -14 0 -11 18 4 23
6 2 4 3 -6 1 -20 -3 -50 23 -42 36 3 5 1 11 -4 14 -5 4 -8 -12 -6 -36 2 -23 1
-47 -2 -52 -6 -9 -10 -31 -16 -83 -1 -11 -5 -19 -9 -16 -5 2 -8 -5 -8 -17 0
-12 4 -18 10 -15 6 4 7 -1 3 -11 -5 -15 -7 -15 -15 0 -14 26 -29 18 -23 -11 3
-16 2 -22 -2 -13 -5 8 -18 15 -30 14 -15 -1 -20 3 -15 14 4 11 7 12 10 4 5
-17 22 -15 22 3 0 8 9 20 20 27 11 7 20 17 20 22 0 18 -32 45 -46 39 -8 -3
-14 -3 -14 0 0 16 33 14 50 -3 20 -20 20 -20 20 13 0 23 -8 41 -25 57 -14 13
-25 29 -25 37 0 7 -3 13 -7 14 -5 0 -17 2 -28 4 -16 3 -20 -1 -20 -20 0 -31
13 -32 25 -2 7 17 9 18 9 5 1 -10 6 -18 11 -18 6 0 10 -5 10 -11 0 -6 -7 -9
-15 -5 -14 5 -20 -6 -15 -29 5 -28 4 -60 -2 -62 -5 -2 -24 -3 -43 -3 -28 0
-33 3 -28 17 4 14 1 13 -18 -5 -21 -19 -22 -25 -11 -43 8 -12 9 -18 3 -14 -15
8 -42 75 -36 85 3 5 2 15 -1 23 -5 14 -8 13 -25 -1 -10 -9 -19 -23 -19 -32 1
-11 5 -10 19 7 l18 22 -1 -27 c0 -15 3 -40 7 -56 7 -23 5 -27 -7 -23 -16 6
-29 -7 -32 -31 -2 -8 -6 -17 -9 -20 -4 -4 -6 0 -5 8 4 29 0 38 -21 43 -17 5
-20 11 -17 31 5 27 1 31 -17 18 -13 -9 -16 -42 -3 -42 5 0 6 -6 1 -12 -9 -15
-5 -51 7 -58 4 -3 1 -12 -8 -20 -14 -13 -15 -12 -9 3 4 10 3 16 -2 12 -6 -3
-9 -14 -8 -25 1 -10 4 -17 8 -14 4 2 17 -8 29 -23 12 -16 19 -23 16 -18 -2 6
4 11 14 11 10 0 16 -6 13 -13 -3 -6 5 -18 16 -25 12 -7 21 -21 21 -30 0 -12 5
-15 18 -11 15 6 15 5 3 -10 -12 -15 -11 -17 3 -17 11 0 15 -5 10 -13 -4 -6 -4
-9 1 -5 12 11 35 -11 35 -33 0 -11 6 -20 13 -21 6 0 17 -2 22 -3 6 -2 16 -3
23 -4 6 0 12 -6 12 -11 0 -13 -47 -2 -77 17 -13 9 -20 21 -16 31 4 14 3 15 -6
2 -9 -13 -14 -12 -43 4 -69 40 -215 140 -258 178 -64 56 -180 172 -180 180 0
5 -15 25 -33 45 -123 138 -218 345 -277 603 -30 131 -31 361 -1 505 25 124 95
332 149 447 104 219 123 314 102 489 -9 67 -12 204 -11 384 2 279 2 280 26
317 42 64 121 93 280 104 50 4 92 9 95 11 5 5 277 -3 315 -9z m534 -59 l53
-11 -51 -23 c-122 -57 -222 -219 -262 -423 -34 -175 31 -441 130 -536 36 -35
53 -30 80 21 29 57 160 184 253 245 87 57 212 120 263 132 16 4 35 12 42 17
11 10 10 73 -3 204 -3 33 -8 78 -10 99 -2 21 -8 44 -12 50 -5 6 -14 37 -21 69
-7 31 -17 57 -22 57 -5 0 -9 5 -9 11 0 5 4 8 9 5 4 -3 6 5 4 18 -4 20 1 25 37
34 22 5 51 9 63 7 34 -4 119 -16 147 -21 14 -2 50 -7 80 -10 58 -6 110 -23
110 -37 0 -5 -5 -5 -10 -2 -14 9 -66 18 -58 10 3 -4 12 -7 20 -9 19 -3 38 -16
38 -27 0 -5 -7 -9 -16 -7 -10 2 -18 -3 -20 -10 -1 -7 0 -8 3 -2 2 5 10 7 15 4
6 -4 18 2 26 12 14 18 14 18 8 -2 -10 -33 -16 -87 -9 -80 7 7 33 -13 33 -25 0
-5 -8 -5 -17 -2 -13 5 -12 1 6 -18 16 -17 21 -32 17 -51 -4 -22 0 -30 17 -39
22 -12 22 -12 3 10 -11 11 -14 21 -8 21 17 0 15 31 -4 44 -9 7 -12 18 -8 29 7
20 24 23 24 5 0 -9 4 -8 11 2 9 13 10 13 6 0 -2 -8 -11 -14 -21 -12 -20 4 -21
-14 -1 -22 9 -3 15 -19 15 -41 0 -26 3 -34 13 -29 6 4 4 -2 -6 -13 -14 -16
-16 -26 -8 -47 6 -14 16 -26 22 -26 8 0 8 4 0 14 -8 10 -9 16 -1 21 9 5 12 -4
9 -32 0 -5 -7 -7 -15 -7 -21 2 -17 -11 9 -30 12 -9 16 -14 10 -11 -7 3 -18 1
-25 -5 -7 -6 -22 -18 -33 -26 -11 -9 -14 -13 -7 -9 6 3 18 3 24 -1 14 -9 20
-10 88 -18 201 -23 446 -111 565 -202 18 -13 35 -24 39 -24 4 0 19 -12 34 -28
15 -15 37 -35 50 -43 12 -9 45 -37 72 -63 27 -25 53 -46 59 -46 6 0 11 -7 11
-15 0 -8 5 -15 11 -15 5 0 8 -4 5 -9 -6 -9 28 -81 43 -90 12 -8 42 -87 48
-129 7 -46 30 -55 100 -38 58 13 59 13 60 -8 1 -11 -1 -15 -4 -8 -6 14 -27 16
-51 3 -9 -6 -29 -12 -43 -15 -26 -6 -27 -8 -38 -123 -7 -65 -18 -140 -26 -167
-8 -26 -15 -56 -15 -65 0 -9 -5 -23 -11 -31 -9 -14 -7 30 5 104 1 11 -1 37 -4
58 -4 21 -4 38 1 38 4 0 3 14 -2 30 -6 17 -15 30 -21 30 -5 0 -7 4 -4 9 3 4
-7 6 -22 4 l-27 -5 23 17 c24 18 21 35 -6 34 -14 0 -13 -2 3 -10 l20 -9 -20 3
c-17 2 -20 9 -17 47 2 29 0 40 -6 32 -7 -10 -11 -5 -15 18 -4 17 -10 29 -15
26 -4 -2 -8 4 -8 15 0 10 4 19 8 19 16 0 7 20 -9 21 -11 0 -13 3 -5 6 6 2 12
9 12 14 0 14 -22 11 -34 -6 -8 -11 -15 -12 -26 -4 -13 9 -12 10 3 5 11 -3 17
0 17 9 0 8 -5 15 -11 15 -7 0 -4 11 7 28 16 24 16 26 0 13 -14 -12 -19 -12
-29 -1 -9 10 -9 11 1 5 11 -5 12 0 7 26 -3 19 -7 39 -7 46 -1 7 -4 10 -8 8 -4
-3 -6 -16 -4 -30 3 -36 -19 -27 -28 11 -5 22 -6 18 -4 -16 2 -38 -1 -46 -15
-46 -11 0 -15 4 -10 11 5 5 6 31 2 57 -4 25 -4 53 0 61 5 8 3 14 -4 14 -8 0
-12 -19 -11 -59 1 -32 -2 -58 -6 -58 -10 0 -20 26 -16 43 1 6 1 8 -2 3 -2 -4
-9 -2 -14 5 -8 12 -10 12 -15 0 -5 -11 -7 -11 -14 0 -5 9 -7 2 -5 -18 3 -20
-1 -36 -10 -44 -12 -10 -13 -9 -9 4 4 8 2 18 -4 22 -6 3 -12 -3 -12 -14 -2
-35 -4 -40 -15 -51 -18 -18 -6 61 11 81 8 8 15 20 15 25 0 5 -5 2 -10 -6 -9
-13 -11 -13 -20 0 -8 12 -10 8 -11 -15 -1 -16 -1 -34 0 -39 1 -4 -3 -14 -10
-22 -6 -7 -8 -18 -4 -24 3 -5 0 -10 -7 -10 -10 0 -9 -3 2 -11 12 -8 12 -10 1
-7 -17 5 -27 58 -11 58 5 0 10 5 10 12 0 6 -8 4 -19 -6 -23 -21 -41 -13 -40
17 1 18 2 19 6 4 3 -10 10 -16 16 -13 7 3 20 9 30 12 18 7 25 54 7 54 -5 0
-10 -8 -10 -18 0 -10 -3 -21 -6 -25 -10 -9 -34 4 -34 18 0 8 -3 16 -8 19 -4 2
-7 -16 -7 -41 0 -29 -6 -50 -17 -60 -10 -8 -14 -22 -10 -31 5 -15 4 -15 -12
-2 -12 9 -14 16 -7 18 9 3 8 8 -1 20 -11 13 -10 15 4 9 22 -8 27 1 17 33 -7
24 -7 24 -8 3 -1 -29 -21 -30 -21 -1 0 12 -3 19 -6 15 -3 -3 -6 -22 -6 -42 0
-35 -1 -36 -15 -16 -8 12 -19 19 -24 15 -10 -6 -5 -85 7 -107 3 -7 -9 4 -26
23 -17 19 -29 29 -25 22 5 -9 1 -12 -11 -10 -13 2 -18 -2 -17 -12 2 -10 -5
-16 -17 -16 -22 0 -25 7 -10 22 7 7 6 11 -3 11 -9 0 -13 -13 -13 -41 1 -33 5
-41 20 -41 11 0 22 -7 24 -15 4 -12 3 -13 -10 -2 -13 10 -16 9 -21 -8 -3 -14
-12 -20 -24 -18 -12 2 -18 -3 -18 -16 0 -22 -20 -33 -30 -17 -3 6 0 9 7 8 7
-2 9 -2 5 1 -5 2 -1 12 7 21 15 16 14 18 -6 16 -15 -1 -22 -8 -22 -21 0 -31
14 -64 27 -64 8 0 8 -3 -1 -12 -14 -14 -16 -45 -3 -50 5 -1 3 -9 -5 -16 -11
-10 -13 -5 -10 33 2 33 -2 51 -15 66 -10 12 -16 26 -12 32 4 6 1 7 -7 2 -9 -6
-10 -2 -5 16 4 13 4 21 0 17 -11 -11 -15 -59 -4 -52 5 3 9 1 9 -5 0 -5 -4 -12
-10 -16 -5 -3 -7 -12 -3 -20 3 -8 0 -15 -6 -15 -6 0 -11 3 -12 8 -5 49 -19 67
-16 21 1 -24 -2 -34 -13 -34 -11 0 -15 10 -14 38 2 44 -8 42 -11 -3 -2 -20 3
-35 15 -43 10 -7 18 -24 17 -37 0 -14 3 -34 7 -45 6 -16 6 -17 -3 -5 -9 13
-12 12 -25 -5 -14 -18 -15 -18 -16 -2 0 9 4 17 9 17 11 0 8 46 -2 57 -4 3 -7
-7 -7 -24 0 -17 -7 -36 -15 -43 -8 -7 -12 -16 -9 -21 3 -5 0 -8 -7 -7 -7 2
-16 -8 -20 -22 l-7 -25 -1 28 c-1 15 3 27 9 27 5 0 14 10 21 21 8 15 8 19 0
15 -6 -4 -15 3 -20 16 l-10 23 0 -22 c-1 -17 -5 -21 -18 -17 -15 5 -16 4 -3
-5 13 -9 12 -12 -4 -24 -10 -8 -16 -20 -13 -28 4 -10 6 -9 6 4 1 28 21 20 21
-9 0 -19 -4 -25 -14 -21 -10 4 -13 1 -9 -9 3 -8 12 -13 19 -10 22 8 16 -2 -7
-15 -15 -8 -19 -8 -15 0 5 7 -1 11 -14 11 -13 0 -19 -4 -14 -12 5 -7 3 -8 -6
-3 -9 5 -10 1 -6 -16 6 -20 5 -21 -4 -6 -6 9 -8 22 -5 28 4 6 0 9 -11 7 -14
-2 -18 2 -16 17 2 11 1 17 -3 13 -3 -3 -8 -13 -9 -22 -1 -8 -10 -24 -21 -36
-10 -11 -13 -20 -7 -20 7 0 12 -4 12 -10 0 -5 -9 -10 -19 -10 -11 0 -22 -6
-25 -12 -3 -7 -3 -3 -1 9 3 12 2 24 -3 27 -6 3 -9 -2 -8 -11 0 -9 -5 -18 -13
-21 -9 -3 -11 0 -6 8 5 9 4 11 -3 6 -15 -9 -16 6 -2 22 5 7 2 5 -7 -3 -13 -12
-15 -18 -5 -27 17 -17 15 -28 -5 -28 -15 0 -14 -2 3 -14 10 -8 16 -18 11 -22
-4 -4 -7 -2 -7 4 0 19 -28 14 -33 -5 -2 -11 -3 -9 -2 4 1 14 -3 19 -12 16 -7
-3 -14 -15 -14 -27 -2 -20 -2 -20 -6 2 -4 19 -7 21 -19 11 -7 -6 -12 -14 -10
-18 3 -4 -4 -8 -15 -8 -10 -1 -19 2 -19 8 0 5 6 9 14 9 18 0 28 27 13 36 -7 4
-9 4 -5 -1 5 -5 -1 -14 -12 -22 -24 -17 -25 -27 -5 -46 13 -13 13 -16 -1 -21
-8 -3 -13 -2 -10 3 3 5 -1 14 -8 20 -11 10 -18 7 -31 -11 l-16 -23 6 30 c6 29
6 29 -9 11 -9 -11 -16 -23 -16 -28 0 -11 -28 2 -33 15 -2 7 -2 -1 1 -18 4 -30
4 -30 -16 -12 -24 22 -35 10 -27 -30 l5 -28 -11 28 c-14 35 -29 35 -24 -1 3
-25 0 -28 -25 -28 -26 0 -28 2 -24 30 2 17 0 26 -4 21 -4 -6 -18 -12 -31 -12
-13 -1 -27 -6 -30 -10 -8 -11 -34 -10 -44 2 -5 6 -7 4 -6 -5 3 -33 -1 -42 -17
-36 -21 8 -44 -11 -45 -38 -1 -19 -2 -19 -8 3 -4 14 -12 26 -19 29 -12 4 -37
-44 -33 -62 1 -5 -5 -3 -14 4 -14 12 -14 10 -5 -16 6 -16 8 -25 4 -21 -4 4
-16 0 -26 -10 -17 -15 -15 -19 49 -79 72 -68 79 -88 9 -28 -90 78 -104 92
-158 159 -95 118 -149 241 -176 400 -16 90 -20 100 -42 106 -15 4 -18 7 -8 8
19 1 28 36 27 105 l-2 50 -20 -25 c-20 -24 -20 -24 -14 -1 4 17 1 22 -14 22
-10 0 -21 0 -24 0 -3 0 -5 -3 -4 -7 0 -5 8 -6 17 -5 14 3 15 1 5 -9 -7 -7 -21
-14 -31 -16 -15 -2 -19 3 -17 21 2 14 -2 23 -11 23 -7 0 -11 -3 -9 -7 5 -8
-39 -5 -54 4 -5 4 -12 2 -16 -4 -3 -5 -11 -10 -16 -10 -6 0 -7 5 -4 10 4 6 1
18 -7 27 -11 14 -11 16 0 9 11 -7 12 -4 3 13 -11 20 -10 20 34 14 25 -3 45 -3
45 0 0 3 -25 32 -55 64 -34 34 -69 85 -89 128 -93 198 -96 503 -6 727 61 153
123 229 200 247 51 12 192 7 269 -10z m916 -150 c-5 -14 -4 -19 4 -15 7 5 9 1
5 -8 -8 -21 6 -20 21 0 10 15 12 14 10 -7 -1 -16 -8 -24 -21 -24 -27 -1 -54
14 -53 28 0 9 2 9 6 0 10 -25 22 -12 17 17 -4 20 -2 30 5 30 8 0 10 -8 6 -21z
m-701 -194 c26 -27 29 -56 9 -84 -40 -53 -123 -31 -123 34 0 24 7 39 22 49 28
20 72 20 92 1z m1528 -28 c9 -7 20 -25 23 -40 6 -21 1 -31 -20 -52 -35 -32
-69 -32 -100 0 -31 30 -32 69 -3 89 27 19 77 20 100 3z m1373 -155 c-2 -81 -8
-160 -14 -175 -6 -16 -11 -42 -11 -59 0 -53 -10 -24 -11 31 -1 34 -5 48 -10
39 -7 -10 -9 -9 -9 4 0 9 6 19 13 21 8 4 8 8 2 14 -5 4 -10 36 -11 71 0 37 3
57 8 50 5 -7 5 5 2 29 -5 35 -3 44 11 49 17 7 17 8 1 19 -15 11 -14 13 5 18
16 4 20 11 16 26 -3 12 -1 19 3 16 5 -3 7 -71 5 -153z m-792 -31 c-9 -12 -23
18 -16 35 6 17 8 17 13 -6 4 -14 5 -27 3 -29z m-170 4 c4 -8 2 -17 -3 -20 -6
-4 -10 3 -10 14 0 25 6 27 13 6z m137 1 c0 -3 -4 -8 -10 -11 -5 -3 -10 -1 -10
4 0 6 5 11 10 11 6 0 10 -2 10 -4z m22 -38 c-7 -7 -12 -8 -12 -2 0 6 3 14 7
17 3 4 9 5 12 2 2 -3 -1 -11 -7 -17z m730 -50 c-6 -6 -7 0 -4 19 5 21 7 23 10
9 2 -10 0 -22 -6 -28z m-804 -23 c-3 -3 -9 2 -12 12 -6 14 -5 15 5 6 7 -7 10
-15 7 -18z m52 21 c0 -3 -4 -8 -10 -11 -5 -3 -10 -1 -10 4 0 6 5 11 10 11 6 0
10 -2 10 -4z m781 -249 c-10 -9 -11 -8 -5 6 3 10 9 15 12 12 3 -3 0 -11 -7
-18z m8 -172 c-2 -23 0 -30 56 -155 86 -190 103 -240 156 -435 43 -160 48
-274 23 -475 -31 -244 -96 -419 -222 -600 -25 -36 -58 -83 -74 -106 -29 -43
-157 -172 -186 -188 -15 -8 2 12 79 95 15 15 25 30 23 32 -2 2 5 12 16 22 11
10 20 24 20 30 0 7 7 15 15 19 8 3 15 12 15 21 0 8 5 15 10 15 6 0 10 7 10 15
0 8 5 15 11 15 6 0 9 6 6 13 -3 7 4 19 15 26 11 7 17 15 14 18 -3 3 3 18 14
33 11 15 21 38 23 49 2 12 11 31 21 43 15 17 16 22 5 29 -11 7 -10 9 5 9 12 0
16 5 12 15 -3 9 3 24 14 35 18 18 18 20 3 20 -14 0 -15 2 -4 9 7 5 11 13 7 19
-3 6 -1 12 5 14 6 2 12 16 12 31 0 15 4 27 9 27 5 0 7 4 4 9 -4 5 0 12 6 15
10 5 10 7 1 12 -10 4 -9 9 2 21 20 19 19 33 -2 33 -15 0 -13 4 7 21 14 11 20
18 13 15 -11 -6 -11 24 2 87 2 9 -2 17 -8 17 -8 0 -7 3 2 9 10 6 11 13 2 29
-14 27 -14 35 2 26 8 -5 8 -2 -2 9 -11 14 -11 20 0 34 10 11 10 14 2 9 -7 -4
-13 -3 -13 3 0 5 5 13 10 16 8 5 7 11 0 20 -7 8 -9 19 -5 25 3 5 1 10 -6 10
-8 0 -8 4 1 15 9 10 9 15 1 15 -6 0 -11 7 -11 16 0 8 -4 13 -8 10 -4 -2 -14 0
-22 6 -13 8 -12 9 2 5 23 -8 31 4 11 18 -15 11 -15 13 5 19 12 4 19 12 16 18
-4 6 -9 5 -15 -3 -4 -7 -11 -10 -15 -6 -4 3 -1 13 5 21 7 8 10 20 6 26 -4 6
-8 23 -10 38 -1 14 -11 33 -22 42 -11 8 -18 21 -15 28 2 6 -3 12 -12 12 -9 0
-16 4 -16 10 0 5 6 7 14 4 10 -4 13 2 10 23 -1 15 -8 29 -13 31 -6 2 -11 12
-11 23 0 10 -4 19 -10 19 -5 0 -10 -10 -10 -22 0 -26 -13 -16 -15 12 -1 12 5
20 14 20 13 1 12 4 -4 16 -11 8 -19 22 -17 29 1 8 -4 28 -13 44 -20 40 -20 62
3 55 9 -2 8 0 -5 7 -23 12 -39 52 -23 57 6 2 10 11 9 20 0 11 -2 12 -6 5 -8
-21 -20 -15 -33 16 -12 29 -3 66 17 66 4 0 8 21 9 46 0 25 4 51 8 57 4 7 2 12
-4 12 -6 0 -15 -10 -20 -22 -6 -16 -9 -18 -9 -6 -1 9 -3 22 -4 30 -2 7 -2 10
0 5 3 -4 9 -5 14 -1 5 3 5 13 -1 24 -9 16 -8 18 5 14 11 -5 14 -2 9 12 -6 17
-5 17 9 -1 14 -17 18 -18 27 -5 5 8 9 22 9 30 -1 11 -3 10 -6 -2 -5 -19 -23
-25 -23 -7 0 6 5 20 11 32 l12 21 9 -24 c5 -13 8 -33 7 -45z m-1436 36 c2 -10
0 -25 -5 -32 -8 -11 -9 -10 -4 4 3 9 1 17 -4 17 -6 0 -10 7 -10 15 0 21 17 19
23 -4z m-286 -83 c-3 -7 -5 -2 -5 12 0 14 2 19 5 13 2 -7 2 -19 0 -25z m129 5
c-7 -7 -26 7 -26 19 0 6 6 6 15 -2 9 -7 13 -15 11 -17z m-101 -32 c-3 -6 -11
-11 -17 -11 -6 0 -6 6 2 15 14 17 26 13 15 -4z m86 -4 c-10 -9 -11 -8 -5 6 3
10 9 15 12 12 3 -3 0 -11 -7 -18z m1461 -1 c7 4 8 2 4 -5 -9 -13 -26 -5 -25
12 0 9 2 8 6 -1 2 -6 10 -9 15 -6z m-1619 -19 c-2 -4 1 -14 7 -22 10 -12 10
-18 0 -30 -7 -8 -17 -15 -22 -15 -5 0 -2 7 6 16 9 8 14 20 11 25 -10 14 -23
11 -27 -8 -2 -9 -12 -17 -24 -18 -16 -1 -20 3 -16 17 5 20 22 25 22 6 0 -7 5
-5 11 5 5 9 8 21 5 25 -2 4 4 8 14 8 10 0 16 -4 13 -9z m189 -9 c-7 -7 -12 -8
-12 -2 0 6 3 14 7 17 3 4 9 5 12 2 2 -3 -1 -11 -7 -17z m1198 18 c0 -3 -4 -8
-10 -11 -5 -3 -10 -1 -10 4 0 6 5 11 10 11 6 0 10 -2 10 -4z m-3376 -39 c7 -6
6 -7 -4 -4 -8 2 -16 12 -17 23 -2 13 -1 15 4 4 3 -8 11 -19 17 -23z m2070 17
c3 -8 2 -12 -4 -9 -6 3 -10 10 -10 16 0 14 7 11 14 -7z m70 0 c3 -8 2 -12 -4
-9 -6 3 -10 10 -10 16 0 14 7 11 14 -7z m948 -6 c-9 -9 -15 -9 -24 1 -11 10
-10 11 5 6 10 -5 17 -2 17 6 0 7 3 9 7 6 4 -4 1 -13 -5 -19z m-42 3 c0 -5 2
-16 5 -24 4 -9 -1 -13 -16 -12 -13 1 -25 7 -27 15 -3 7 0 10 7 6 6 -4 11 -1
11 8 0 9 5 16 10 16 6 0 10 -4 10 -9z m593 -12 c-6 -22 14 -34 32 -19 18 15
20 -1 3 -18 -18 -18 -24 -15 -45 21 -18 30 -18 33 -3 33 11 0 15 -6 13 -17z
m37 12 c0 -5 -7 -11 -14 -14 -10 -4 -13 -1 -9 9 6 15 23 19 23 5z m-3416 -42
c-10 -17 -19 -9 -21 18 -1 26 0 26 13 9 7 -10 11 -23 8 -27z m2723 19 c-3 -8
-6 -5 -6 6 -1 11 2 17 5 13 3 -3 4 -12 1 -19z m-123 -2 c-3 -8 -1 -17 5 -21 7
-3 11 3 11 16 0 17 3 19 14 10 13 -11 12 -15 -2 -30 -12 -13 -21 -15 -30 -8
-10 8 -16 7 -23 -4 -8 -11 -9 -10 -7 6 2 11 10 25 18 32 19 16 20 16 14 -1z
m86 -3 c0 -5 -12 -19 -25 -32 -19 -17 -25 -19 -25 -8 0 9 9 19 20 22 11 4 18
11 15 16 -4 5 -1 9 4 9 6 0 11 -3 11 -7z m-443 -45 c-3 -8 -6 -5 -6 6 -1 11 2
17 5 13 3 -3 4 -12 1 -19z m-547 -12 c0 -2 -8 -10 -17 -17 -16 -13 -17 -12 -4
4 13 16 21 21 21 13z m-135 -81 c-1 -14 2 -25 8 -25 5 0 4 -6 -2 -14 -9 -11
-9 -15 1 -19 10 -4 10 -6 0 -6 -7 -1 -15 6 -18 14 -4 8 -10 12 -16 9 -5 -4 -5
-11 2 -19 7 -9 6 -16 -5 -25 -16 -13 -16 -13 -18 37 -1 21 4 28 19 28 10 0 20
7 20 15 3 25 4 30 8 30 2 0 3 -11 1 -25z m782 -72 c-3 -3 -13 1 -21 10 -8 8
-12 17 -9 20 3 3 12 -1 20 -9 9 -8 13 -18 10 -21z m-917 -42 c0 -5 -7 -11 -14
-14 -10 -4 -13 -1 -9 9 6 15 23 19 23 5z m-128 -163 c-8 -8 -9 -4 -5 11 4 17
2 20 -11 15 -19 -7 -21 7 -4 24 10 10 15 7 22 -13 5 -17 4 -31 -2 -37z m1036
-70 c-6 -18 -13 -27 -15 -21 -4 11 13 53 22 53 2 0 -1 -15 -7 -32z m-1308 -52
c0 -8 -4 -18 -10 -21 -5 -3 -10 3 -10 14 0 12 5 21 10 21 6 0 10 -6 10 -14z
m1261 -39 c-10 -9 -11 -8 -5 6 3 10 9 15 12 12 3 -3 0 -11 -7 -18z m1289 3 c0
-5 -2 -10 -4 -10 -3 0 -8 5 -11 10 -3 6 -1 10 4 10 6 0 11 -4 11 -10z m-2786
-16 c3 -8 2 -12 -4 -9 -6 3 -10 1 -10 -5 0 -7 -7 -9 -16 -6 -13 5 -15 2 -11
-14 3 -11 1 -18 -4 -14 -5 3 -9 12 -9 20 0 8 -4 14 -10 14 -5 0 -10 -9 -10
-19 0 -11 -4 -22 -9 -25 -5 -4 -6 5 -2 21 6 21 14 28 37 30 16 1 30 7 32 13 5
14 9 13 16 -6z m-187 -81 c-3 -10 -5 -4 -5 12 0 17 2 24 5 18 2 -7 2 -21 0
-30z m-47 -88 c19 -22 8 -25 -12 -3 -10 10 -14 18 -9 18 5 0 14 -7 21 -15z
m-676 -330 c3 -8 1 -15 -4 -15 -6 0 -10 7 -10 15 0 8 2 15 4 15 2 0 6 -7 10
-15z m18 -57 c-6 -6 -7 0 -4 19 5 21 7 23 10 9 2 -10 0 -22 -6 -28z m43 -8
c-3 -5 -11 -10 -16 -10 -6 0 -7 5 -4 10 3 6 11 10 16 10 6 0 7 -4 4 -10z m-31
-42 c-9 -14 -23 2 -17 18 4 12 8 13 14 3 4 -7 5 -17 3 -21z m56 8 c0 -2 -7 -6
-15 -10 -8 -3 -15 -1 -15 4 0 6 7 10 15 10 8 0 15 -2 15 -4z m83 -112 c-3 -27
-1 -34 9 -28 10 6 10 4 0 -9 -20 -24 -10 -44 11 -23 9 10 17 13 17 7 0 -17
-40 -34 -44 -19 -4 11 -2 98 3 106 6 10 8 -4 4 -34z m41 -103 c16 -2 -3 -14
-27 -16 -14 -2 -24 2 -24 10 0 10 11 12 51 6z m-1 -38 c-9 -3 -10 -10 -3 -24
6 -10 9 -19 8 -20 -23 -7 -51 -3 -55 8 -9 23 4 38 33 39 16 1 23 -1 17 -3z m1
-72 c16 -2 -3 -14 -27 -16 -14 -2 -24 2 -24 10 0 10 11 12 51 6z m43 -4 c0 -8
-6 -14 -14 -14 -9 0 -10 4 -2 14 6 7 12 13 14 13 1 0 2 -6 2 -13z m-10 -39 c0
-7 2 -18 4 -24 2 -7 0 -12 -6 -13 -8 -1 -11 22 -6 44 2 10 8 5 8 -7z m478 -34
c108 -28 359 -69 493 -79 51 -4 95 -12 98 -16 3 -5 -4 -9 -15 -9 -12 0 -21 -4
-21 -9 0 -11 25 -32 32 -26 2 3 5 -2 5 -10 0 -8 -4 -12 -9 -9 -4 3 -8 0 -8 -5
0 -6 -5 -11 -11 -11 -8 0 -7 6 2 17 12 15 12 16 -2 11 -9 -4 -22 -1 -29 5 -10
9 -11 9 -6 0 3 -6 1 -13 -5 -15 -6 -2 -11 -17 -11 -32 0 -18 -3 -24 -9 -15 -4
7 -6 16 -3 20 2 4 -2 12 -10 18 -11 9 -13 6 -10 -18 2 -17 -1 -33 -6 -36 -6
-3 -7 1 -4 9 4 11 0 16 -10 16 -9 0 -16 -5 -16 -12 0 -6 -3 -8 -7 -4 -5 4 1
14 11 22 11 8 15 14 9 14 -7 0 -14 -4 -17 -9 -9 -14 -54 -19 -65 -8 -8 8 -11
5 -11 -8 0 -15 -3 -16 -12 -7 -16 16 -58 15 -58 0 0 -10 -2 -10 -8 -1 -7 11
-27 15 -127 27 -11 1 -29 7 -40 12 -11 6 -31 9 -45 8 -14 -1 -29 1 -35 4 -19
12 -115 10 -115 -1 0 -7 -5 -6 -11 3 -8 11 -12 12 -16 2 -2 -6 -8 -10 -12 -8
-3 2 -6 -13 -6 -34 0 -21 2 -34 6 -29 3 6 10 0 14 -13 7 -22 7 -22 12 -3 8 32
20 38 16 8 -3 -16 3 -37 12 -48 15 -19 15 -18 10 20 l-4 40 10 -37 c12 -42 28
-50 30 -15 1 16 2 18 6 5 2 -10 13 -18 24 -18 11 0 18 -4 15 -8 -2 -4 5 -14
16 -21 18 -11 20 -11 14 4 -6 16 -5 16 19 1 16 -11 25 -12 25 -5 0 8 6 6 18
-4 9 -9 30 -17 45 -19 16 -3 32 -8 35 -14 4 -5 18 -10 32 -12 13 -1 27 -7 30
-13 4 -5 14 -7 23 -3 10 4 19 0 23 -9 3 -9 11 -14 18 -11 15 6 79 -20 95 -39
9 -12 8 -15 -5 -13 -9 0 -19 -4 -21 -10 -4 -12 26 -12 46 0 21 13 40 -15 30
-44 -9 -25 -9 -25 -5 3 2 18 -1 27 -10 27 -8 0 -14 -9 -14 -19 0 -11 -4 -22
-9 -25 -5 -4 -7 4 -3 16 l5 21 -21 -21 c-21 -21 -31 -49 -14 -38 5 3 9 -1 9
-9 0 -8 -5 -11 -10 -8 -6 4 -8 -3 -5 -15 4 -13 2 -20 -3 -16 -6 3 -9 13 -8 22
3 36 -2 62 -12 62 -6 0 -10 -10 -9 -22 4 -44 0 -57 -19 -67 -17 -9 -19 -7 -17
19 1 16 -2 27 -6 24 -4 -3 -8 -14 -8 -25 0 -10 -5 -19 -11 -19 -7 0 -9 11 -6
26 5 29 -8 20 -16 -11 -3 -11 -4 0 -3 25 3 38 0 46 -15 46 -10 0 -15 -5 -11
-11 10 -15 9 -84 -2 -78 -4 3 -6 21 -3 39 6 39 -9 46 -23 12 -9 -21 -10 -20
-7 8 3 29 1 31 -17 24 -12 -4 -22 -16 -23 -26 -3 -18 -2 -18 5 0 5 12 11 15
15 9 4 -6 0 -16 -8 -23 -20 -17 -31 10 -16 39 17 32 12 38 -9 11 -11 -14 -20
-37 -20 -52 0 -31 -17 -45 -33 -29 -9 9 -8 11 6 6 14 -6 17 -2 17 24 0 32 -19
45 -21 14 0 -15 -2 -15 -9 2 -12 27 -12 43 0 25 8 -13 10 -13 10 2 0 9 -4 19
-10 23 -5 3 -7 12 -4 19 3 7 -2 16 -11 20 -9 3 -13 11 -10 16 4 6 1 17 -5 25
-7 8 -10 21 -7 30 4 8 1 17 -5 21 -6 4 -8 3 -4 -4 3 -6 1 -14 -4 -17 -8 -5 -6
-12 4 -24 10 -10 13 -28 10 -45 -2 -15 -1 -25 4 -22 5 3 9 -1 9 -8 0 -7 -6
-13 -13 -13 -7 0 -11 4 -9 8 3 3 -2 12 -10 19 -11 9 -12 16 -5 25 8 9 8 15 0
20 -5 3 -10 -1 -10 -9 0 -16 -18 -31 -27 -22 -3 3 0 12 6 20 7 8 14 26 15 39
2 18 -2 23 -18 22 -12 -1 -22 -9 -24 -18 -2 -9 -8 -17 -13 -17 -5 0 -9 -7 -9
-15 0 -8 7 -15 15 -15 9 0 15 6 14 13 -1 6 -1 20 0 31 1 15 3 16 16 6 13 -11
13 -15 3 -21 -7 -5 -12 -25 -12 -49 1 -38 0 -39 -10 -18 -6 13 -17 24 -24 24
-7 1 -14 2 -17 3 -2 0 0 13 6 28 8 23 6 30 -15 49 -13 13 -26 29 -29 36 -2 7
-8 10 -12 5 -5 -4 -3 -13 3 -19 17 -17 15 -56 -3 -74 -13 -13 -15 -12 -21 11
-3 14 -4 37 -2 50 4 17 1 25 -8 25 -10 0 -14 -13 -14 -42 0 -56 -6 -45 -13 22
-3 33 -2 47 3 35 6 -16 8 -13 7 13 0 19 6 38 14 42 7 5 10 12 6 17 -5 4 -13 1
-18 -7 -8 -11 -8 -8 -3 10 6 22 5 23 -9 12 -13 -11 -14 -17 -4 -33 14 -23 -3
-40 -34 -32 -34 9 -19 30 16 24 6 -1 2 5 -7 15 -14 14 -20 15 -32 5 -14 -12
-19 -54 -5 -46 7 5 0 -77 -8 -85 -3 -3 -4 9 -3 25 3 43 1 55 -8 55 -5 0 -10
-21 -11 -47 -1 -26 -3 -49 -6 -51 -5 -5 -6 9 -9 105 -1 31 -6 43 -19 47 -9 2
-15 1 -13 -3 3 -4 7 -31 9 -61 3 -30 3 -47 0 -38 -2 9 -10 15 -17 12 -16 -6
-56 41 -57 69 -1 21 -1 21 -10 -3 l-8 -25 2 25 c2 19 8 24 27 25 14 0 32 4 40
10 26 16 52 13 59 -8 5 -12 10 -16 14 -10 4 6 0 16 -8 23 -8 7 -15 20 -14 29
0 11 2 12 6 3 4 -10 8 -10 19 -1 13 11 18 4 16 -21 0 -3 8 -6 18 -6 19 0 19 1
-1 22 -12 13 -27 20 -34 18 -14 -6 -15 42 -1 64 5 9 3 12 -6 10 -15 -3 -18 3
-17 35 1 21 1 21 9 -3 8 -27 17 -16 22 30 2 19 8 24 22 22 17 -3 18 -2 7 12
-16 19 -7 33 11 19 16 -12 78 -7 92 7 14 14 32 13 101 -6z m-732 -1 c-7 -3
-13 -11 -13 -19 0 -20 -17 -17 -22 4 -4 13 2 17 21 18 14 1 20 -1 14 -3z m22
-22 c-3 -6 -11 -11 -17 -11 -6 0 -6 6 2 15 14 17 26 13 15 -4z m289 -13 c6 -4
7 -10 3 -15 -5 -4 -12 -1 -17 7 -8 13 -10 13 -10 1 0 -8 -2 -12 -5 -10 -2 3
-1 16 2 29 4 17 8 20 11 10 3 -8 10 -18 16 -22z m23 -10 c-3 -8 -6 -5 -6 6 -1
11 2 17 5 13 3 -3 4 -12 1 -19z m60 0 c-3 -8 -6 -5 -6 6 -1 11 2 17 5 13 3 -3
4 -12 1 -19z m48 2 c-3 -5 -13 -6 -21 -3 -12 4 -13 8 -3 14 15 9 32 2 24 -11z
m26 -3 c-10 -9 -11 -8 -5 6 3 10 9 15 12 12 3 -3 0 -11 -7 -18z m-103 -19 c0
-13 1 -28 3 -34 2 -7 0 -12 -6 -13 -9 -1 -10 8 -6 54 1 8 3 15 6 15 3 0 4 -10
3 -22z m-358 -19 c0 -6 -7 -18 -16 -26 -12 -13 -18 -14 -24 -3 -6 10 -9 10
-13 -1 -4 -10 -6 -10 -6 -1 -1 17 38 54 49 47 6 -4 10 -11 10 -16z m397 -1
c-1 -15 3 -23 13 -23 8 0 15 8 15 17 0 9 4 20 8 24 4 4 7 -6 5 -22 -2 -26 -6
-30 -28 -30 -26 0 -34 14 -24 44 6 20 14 14 11 -10z m-519 -4 c6 -11 11 -13
16 -5 9 14 36 15 36 1 0 -5 -9 -10 -20 -10 -14 0 -20 -7 -21 -22 -1 -21 -2
-21 -6 -3 -3 11 -11 24 -19 28 -8 4 -14 12 -14 17 0 16 18 11 28 -6z m-143
-74 c1 -10 -2 -17 -6 -14 -4 2 -7 13 -6 24 2 23 10 17 12 -10z m135 15 c0 -2
-6 -5 -13 -8 -8 -3 -14 1 -14 8 0 7 6 11 14 8 7 -3 13 -6 13 -8z m456 -4 c2
-8 1 -8 -3 0 -4 8 -8 7 -14 -2 -8 -12 -11 -11 -19 1 -8 12 -10 13 -10 1 0 -8
-3 -12 -6 -8 -3 3 -3 10 0 15 8 13 49 8 52 -7z m37 2 c-3 -7 -6 -13 -8 -13 -2
0 -5 6 -8 13 -3 8 1 14 8 14 7 0 11 -6 8 -14z m101 0 c3 -8 -1 -28 -10 -45
-12 -23 -19 -27 -27 -19 -9 9 -8 14 3 21 10 7 11 10 3 10 -7 0 -13 7 -13 15 0
8 -7 15 -15 15 -18 0 -20 -16 -2 -27 14 -9 19 -43 6 -43 -19 0 -24 6 -23 28 1
13 -4 21 -10 19 -6 -2 -11 -15 -10 -29 1 -13 -4 -25 -11 -25 -6 0 -11 13 -11
28 0 15 3 26 7 23 5 -2 15 6 23 18 18 27 81 35 90 11z m803 -35 c-3 -7 -5 -2
-5 12 0 14 2 19 5 13 2 -7 2 -19 0 -25z m-1047 -13 c0 -8 -4 -16 -9 -19 -5 -4
-7 3 -4 14 4 16 2 19 -13 14 -15 -5 -16 -4 -4 4 17 12 30 7 30 -13z m37 8 c0
-9 -4 -10 -14 -2 -7 6 -13 12 -13 14 0 1 6 2 13 2 8 0 14 -6 14 -14z m67 -14
c0 -18 -5 -23 -24 -23 -19 0 -24 5 -23 22 1 30 0 29 25 27 17 -1 22 -8 22 -26z
m316 16 c0 -8 -4 -15 -10 -15 -5 0 -10 7 -10 15 0 8 5 15 10 15 6 0 10 -7 10
-15z m-903 -24 c0 -11 -5 -18 -9 -15 -4 3 -5 11 -1 19 7 21 12 19 10 -4z m77
-37 c3 -8 2 -12 -4 -9 -6 3 -10 10 -10 16 0 14 7 11 14 -7z m51 -12 c-3 -3
-11 0 -18 7 -9 10 -8 11 6 5 10 -3 15 -9 12 -12z m458 0 c-5 -11 -7 -11 -14 0
-8 11 -10 11 -18 0 -7 -11 -9 -11 -14 0 -3 10 3 14 23 14 20 0 26 -4 23 -14z
m207 4 c0 -2 -7 -7 -16 -10 -8 -3 -12 -2 -9 4 6 10 25 14 25 6z m15 -74 c6
-31 4 -94 -4 -86 -3 3 -4 22 -2 43 1 22 -2 42 -8 46 -13 8 -14 25 -2 25 5 0
12 -13 16 -28z m-15 -27 c0 -14 -4 -25 -10 -25 -5 0 -10 11 -10 25 0 14 5 25
10 25 6 0 10 -11 10 -25z m-650 -10 c19 -22 8 -25 -12 -3 -10 10 -14 18 -9 18
5 0 14 -7 21 -15z m780 -41 c-5 -19 -12 -39 -16 -42 -4 -4 -4 1 -1 11 4 10 7
30 7 43 0 13 4 24 9 24 5 0 5 -15 1 -36z m-703 -66 c-3 -8 -6 -5 -6 6 -1 11 2
17 5 13 3 -3 4 -12 1 -19z m808 3 c3 -5 2 -12 -3 -15 -5 -3 -9 1 -9 9 0 17 3
19 12 6z m476 -5 c-4 -6 -11 -18 -14 -26 -3 -8 -5 -3 -4 11 1 14 7 26 14 26 8
0 9 -5 4 -11z m-531 -6 c0 -5 -4 -10 -10 -10 -5 0 -10 5 -10 10 0 6 5 10 10
10 6 0 10 -4 10 -10z m57 -35 c0 -8 -4 -12 -9 -9 -5 3 -6 10 -3 15 9 13 12 11
12 -6z m37 -1 c3 -8 2 -12 -4 -9 -6 3 -10 10 -10 16 0 14 7 11 14 -7z m-76
-19 c-3 -3 -9 2 -12 12 -6 14 -5 15 5 6 7 -7 10 -15 7 -18z m221 -58 c0 -9 -2
-9 -5 0 -3 7 -13 9 -22 6 -14 -4 -14 -3 -2 5 16 12 30 7 29 -11z"/>
<path d="M1252 2621 c13 -22 28 -28 28 -11 0 5 -9 14 -20 20 -19 10 -20 10 -8
-9z"/>
<path d="M1110 1495 c0 -9 5 -15 11 -13 6 2 11 8 11 13 0 5 -5 11 -11 13 -6 2
-11 -4 -11 -13z"/>
<path d="M1226 1334 c-9 -8 -13 -20 -10 -25 10 -16 27 -5 29 19 2 26 1 27 -19
6z"/>
<path d="M1274 1254 c3 -7 0 -15 -7 -18 -9 -3 -9 -5 0 -5 7 -1 17 7 22 17 8
14 6 19 -5 19 -8 0 -13 -6 -10 -13z"/>
<path d="M1301 1236 c-16 -19 -25 -70 -11 -61 6 4 9 12 7 18 -2 7 2 20 11 30
8 9 13 19 10 22 -3 3 -11 -1 -17 -9z"/>
<path d="M1306 1161 c-3 -5 1 -14 8 -20 12 -10 13 -8 9 8 -6 23 -9 25 -17 12z"/>
<path d="M1255 1131 c-3 -5 -2 -12 3 -15 5 -3 9 1 9 9 0 17 -3 19 -12 6z"/>
<path d="M1303 1106 c-9 -11 -9 -18 2 -32 13 -17 14 -16 13 14 -1 17 -1 32 -2
32 -1 -1 -6 -7 -13 -14z"/>
<path d="M1206 1062 c-2 -4 -1 -14 4 -22 7 -11 9 -9 7 8 -1 24 -3 26 -11 14z"/>
<path d="M1281 1044 c0 -11 3 -14 6 -6 3 7 2 16 -1 19 -3 4 -6 -2 -5 -13z"/>
<path d="M963 1003 c-3 -10 -8 -22 -11 -27 -3 -5 0 -6 6 -2 7 4 12 13 12 21 0
7 6 16 13 18 9 4 9 6 -1 6 -7 1 -15 -7 -19 -16z"/>
<path d="M1366 997 c1 -12 3 -28 3 -34 1 -7 6 -13 11 -13 14 0 12 27 -2 33
-10 4 -10 6 0 6 16 1 16 18 -1 24 -9 3 -13 -2 -11 -16z"/>
<path d="M801 994 c0 -11 3 -14 6 -6 3 7 2 16 -1 19 -3 4 -6 -2 -5 -13z"/>
<path d="M884 987 c-4 -7 -4 -9 1 -5 4 4 14 1 21 -7 19 -18 18 -29 -2 -21 -8
3 -13 2 -10 -3 3 -5 -1 -11 -9 -14 -9 -4 -12 -1 -8 9 3 7 0 14 -6 14 -6 0 -11
-4 -11 -8 0 -15 -41 -53 -50 -47 -6 4 -6 -3 -1 -16 11 -31 31 -36 38 -10 4 17
8 19 19 10 8 -6 14 -8 14 -4 0 4 -8 14 -17 21 -10 7 -14 16 -10 20 4 5 12 3
16 -5 6 -10 12 -9 25 5 22 21 35 5 28 -32 -3 -17 0 -24 12 -24 23 0 31 4 28
13 -1 4 7 3 19 -3 18 -10 19 -10 10 8 -6 11 -7 23 -3 27 4 4 -2 5 -14 1 -13
-4 -26 -1 -34 9 -9 11 -9 15 -1 15 8 0 7 6 -3 16 -9 8 -16 19 -16 24 0 14 -29
20 -36 7z m69 -98 c4 -16 3 -18 -9 -8 -16 13 -19 29 -5 29 5 0 11 -9 14 -21z
m-113 -10 c0 -5 -4 -9 -10 -9 -5 0 -10 7 -10 16 0 8 5 12 10 9 6 -3 10 -10 10
-16z"/>
<path d="M845 969 c-4 -6 -5 -12 -2 -15 2 -3 7 2 10 11 7 17 1 20 -8 4z"/>
<path d="M810 930 c0 -5 5 -10 10 -10 6 0 10 5 10 10 0 6 -4 10 -10 10 -5 0
-10 -4 -10 -10z"/>
<path d="M1360 930 c0 -5 4 -10 9 -10 6 0 13 5 16 10 3 6 -1 10 -9 10 -9 0
-16 -4 -16 -10z"/>
<path d="M1400 918 c0 -12 1 -19 3 -17 1 2 9 12 16 22 12 14 11 17 -3 17 -10
0 -16 -8 -16 -22z"/>
<path d="M760 916 c0 -2 8 -10 18 -17 15 -13 16 -12 3 4 -13 16 -21 21 -21 13z"/>
<path d="M1477 889 c6 -22 23 -26 23 -5 0 8 -6 16 -14 19 -10 4 -12 0 -9 -14z"/>
<path d="M750 876 c0 -2 7 -7 16 -10 8 -3 12 -2 9 4 -6 10 -25 14 -25 6z"/>
<path d="M853 858 c-13 -17 -14 -56 -2 -63 5 -4 6 2 2 12 -6 16 -5 16 10 4 15
-12 17 -11 17 7 0 16 -4 20 -17 15 -16 -6 -16 -4 1 15 11 12 14 22 9 22 -6 0
-15 -6 -20 -12z"/>
<path d="M916 689 c2 -5 11 -6 19 -3 9 4 18 -3 24 -17 6 -16 10 -18 10 -8 1 9
-5 21 -11 26 -15 12 -49 13 -42 2z"/>
<path d="M2643 3375 c0 -27 2 -31 12 -22 7 7 9 14 4 15 -6 3 -5 9 1 17 8 9 7
14 -3 18 -9 3 -13 -5 -14 -28z"/>
<path d="M2655 3329 c-4 -6 -4 -13 0 -17 4 -4 10 -1 12 6 3 6 10 9 15 6 7 -4
8 -2 4 4 -9 15 -23 15 -31 1z"/>
<path d="M3240 2819 c0 -5 -6 -7 -12 -3 -7 4 -10 3 -5 -1 13 -15 46 -13 40 2
-6 16 -23 17 -23 2z"/>
<path d="M3350 2826 c0 -2 7 -9 15 -16 13 -11 14 -10 9 4 -5 14 -24 23 -24 12z"/>
<path d="M3446 2808 c3 -4 11 -5 19 -1 21 7 19 12 -4 10 -11 0 -18 -5 -15 -9z"/>
<path d="M3102 2781 c-11 -7 -11 -9 0 -14 9 -3 15 1 15 9 0 8 -1 14 -1 14 -1
0 -7 -4 -14 -9z"/>
<path d="M3221 2774 c0 -11 3 -14 6 -6 3 7 2 16 -1 19 -3 4 -6 -2 -5 -13z"/>
<path d="M3135 2770 c-3 -5 -1 -10 4 -10 6 0 11 5 11 10 0 6 -2 10 -4 10 -3 0
-8 -4 -11 -10z"/>
<path d="M3076 2738 c3 -5 10 -6 15 -3 13 9 11 12 -6 12 -8 0 -12 -4 -9 -9z"/>
<path d="M3038 2685 c2 -14 8 -27 12 -30 4 -2 5 7 2 20 -2 14 -8 27 -12 30 -4
2 -5 -7 -2 -20z"/>
<path d="M3006 2663 c-6 -14 -5 -15 5 -6 7 7 10 15 7 18 -3 3 -9 -2 -12 -12z"/>
<path d="M2927 2619 c4 -14 1 -20 -8 -17 -8 2 -14 -1 -14 -7 0 -5 5 -8 10 -6
6 2 15 4 21 4 12 0 7 34 -6 42 -5 3 -6 -4 -3 -16z"/>
<path d="M1500 2620 c0 -5 5 -10 11 -10 5 0 7 5 4 10 -3 6 -8 10 -11 10 -2 0
-4 -4 -4 -10z"/>
<path d="M1550 2609 c0 -5 5 -7 10 -4 6 3 10 8 10 11 0 2 -4 4 -10 4 -5 0 -10
-5 -10 -11z"/>
<path d="M3570 2590 c0 -5 5 -10 10 -10 6 0 10 5 10 10 0 6 -4 10 -10 10 -5 0
-10 -4 -10 -10z"/>
<path d="M2934 2569 c3 -8 9 -22 12 -31 4 -10 10 -18 15 -18 16 0 10 19 -12
41 -12 12 -19 15 -15 8z"/>
<path d="M2870 2550 c0 -5 5 -10 11 -10 5 0 7 5 4 10 -3 6 -8 10 -11 10 -2 0
-4 -4 -4 -10z"/>
<path d="M2751 2364 c0 -11 3 -14 6 -6 3 7 2 16 -1 19 -3 4 -6 -2 -5 -13z"/>
<path d="M2641 2322 c-7 -14 -6 -19 4 -19 8 0 11 7 7 15 -4 11 -1 14 12 9 10
-4 15 -3 11 3 -9 15 -23 12 -34 -8z"/>
<path d="M2626 2265 c-3 -8 -1 -15 4 -15 6 0 10 7 10 15 0 8 -2 15 -4 15 -2 0
-6 -7 -10 -15z"/>
<path d="M2650 2265 c0 -8 5 -15 10 -15 6 0 10 7 10 15 0 8 -4 15 -10 15 -5 0
-10 -7 -10 -15z"/>
<path d="M2426 2133 c-6 -14 -5 -15 5 -6 7 7 10 15 7 18 -3 3 -9 -2 -12 -12z"/>
<path d="M2310 2101 c0 -10 19 -25 25 -20 1 2 -3 10 -11 17 -8 7 -14 8 -14 3z"/>
<path d="M2271 2064 c0 -11 3 -14 6 -6 3 7 2 16 -1 19 -3 4 -6 -2 -5 -13z"/>
<path d="M2136 2003 c-4 -9 -2 -21 3 -26 10 -10 31 -1 31 14 0 6 -4 7 -10 4
-6 -3 -7 1 -4 9 3 9 2 16 -4 16 -5 0 -13 -8 -16 -17z"/>
<path d="M1880 1976 c0 -2 7 -7 16 -10 8 -3 12 -2 9 4 -6 10 -25 14 -25 6z"/>
<path d="M1926 1972 c6 -4 13 -14 16 -22 3 -11 6 -9 10 6 4 15 0 20 -16 22
-11 0 -16 -2 -10 -6z"/>
<path d="M1866 1957 c3 -10 9 -15 12 -12 3 3 0 11 -7 18 -10 9 -11 8 -5 -6z"/>
<path d="M1836 1932 c-8 -13 7 -29 27 -29 21 0 23 23 1 31 -20 8 -22 8 -28 -2z"/>
<path d="M1826 1858 c3 -4 11 -5 19 -1 21 7 19 12 -4 10 -11 0 -18 -5 -15 -9z"/>
<path d="M4810 3310 c0 -5 5 -10 10 -10 6 0 10 5 10 10 0 6 -4 10 -10 10 -5 0
-10 -4 -10 -10z"/>
<path d="M4755 2510 c3 -5 8 -10 11 -10 2 0 4 5 4 10 0 6 -5 10 -11 10 -5 0
-7 -4 -4 -10z"/>
<path d="M4808 2263 c7 -3 16 -2 19 1 4 3 -2 6 -13 5 -11 0 -14 -3 -6 -6z"/>
<path d="M4880 2090 c0 -5 5 -10 11 -10 5 0 7 5 4 10 -3 6 -8 10 -11 10 -2 0
-4 -4 -4 -10z"/>
<path d="M1362 1110 c0 -14 2 -19 5 -12 2 6 2 18 0 25 -3 6 -5 1 -5 -13z"/>
<path d="M1691 934 c0 -11 3 -14 6 -6 3 7 2 16 -1 19 -3 4 -6 -2 -5 -13z"/>
<path d="M1694 890 c0 -13 4 -16 10 -10 7 7 7 13 0 20 -6 6 -10 3 -10 -10z"/>
<path d="M1723 860 c-6 -21 -23 -28 -23 -8 0 6 -2 9 -5 6 -7 -7 5 -38 15 -38
4 0 13 14 19 30 5 17 8 30 5 30 -3 0 -8 -9 -11 -20z"/>
<path d="M1735 820 c4 -6 11 -8 16 -5 5 4 9 2 9 -4 0 -5 -6 -11 -12 -14 -10
-4 -10 -7 0 -18 10 -11 12 -10 12 4 0 11 5 14 16 10 14 -5 13 -3 -2 15 -18 22
-51 31 -39 12z"/>
<path d="M1571 709 c-1 -32 24 -68 37 -54 12 12 4 75 -9 75 -5 0 -10 -12 -10
-27 l-1 -28 -8 30 c-7 29 -8 29 -9 4z"/>
<path d="M1815 710 c3 -5 10 -10 16 -10 5 0 9 5 9 10 0 6 -7 10 -16 10 -8 0
-12 -4 -9 -10z"/>
<path d="M1651 694 c0 -11 3 -14 6 -6 3 7 2 16 -1 19 -3 4 -6 -2 -5 -13z"/>
<path d="M1805 690 c3 -6 12 -10 20 -10 7 0 16 -7 18 -15 4 -12 5 -12 3 1 0 9
-11 21 -24 25 -15 6 -21 5 -17 -1z"/>
<path d="M1878 636 c4 -16 7 -17 16 -4 6 8 14 15 19 16 28 3 25 9 -4 8 -30 -1
-35 -4 -31 -20z"/>
<path d="M1802 600 c0 -19 2 -27 5 -17 2 9 2 25 0 35 -3 9 -5 1 -5 -18z"/>
<path d="M2015 609 c-4 -6 -5 -12 -2 -15 2 -3 7 2 10 11 7 17 1 20 -8 4z"/>
<path d="M2055 609 c-11 -16 -1 -19 13 -3 7 8 8 14 3 14 -5 0 -13 -5 -16 -11z"/>
<path d="M2120 601 c0 -6 4 -13 10 -16 6 -3 7 1 4 9 -7 18 -14 21 -14 7z"/>
<path d="M2285 540 c-3 -6 1 -7 9 -4 18 7 21 14 7 14 -6 0 -13 -4 -16 -10z"/>
<path d="M2025 510 c-3 -6 1 -7 9 -4 18 7 21 14 7 14 -6 0 -13 -4 -16 -10z"/>
<path d="M2050 478 c0 -19 2 -20 10 -8 13 19 13 30 0 30 -5 0 -10 -10 -10 -22z"/>
<path d="M2216 471 c-3 -5 1 -14 9 -21 11 -9 14 -8 12 9 -1 22 -12 28 -21 12z"/>
<path d="M2250 456 c0 -8 6 -17 13 -19 10 -4 10 -6 0 -6 -15 -1 -18 -31 -4
-31 12 0 19 29 13 53 -5 20 -22 23 -22 3z"/>
<path d="M1474 780 c0 -9 7 -16 16 -16 9 0 16 7 16 16 0 9 -7 16 -16 16 -9 0
-16 -7 -16 -16z"/>
</g>
</svg>
